<svg width="18" height="18" viewBox="0 0 18 18" fill="none" xmlns="http://www.w3.org/2000/svg">
<g clip-path="url(#clip0_2_66)">
<path d="M9.35996 1.125C4.58771 1.125 0.720876 4.39805 0.720876 8.4375C0.720876 10.1823 1.44144 11.7766 2.64361 13.0324C2.22174 14.8032 0.812001 16.3818 0.795126 16.3993C0.719188 16.4784 0.698094 16.6009 0.744501 16.7064C0.786749 16.8117 0.88027 16.875 0.989958 16.875C3.2259 16.875 4.87458 15.7584 5.73521 15.0683C6.83546 15.5004 8.06396 15.75 9.35996 15.75C14.1322 15.75 17.9696 12.4759 17.9696 8.4375C17.9696 4.3991 14.1322 1.125 9.35996 1.125Z" fill="#030303"/>
</g>
<defs>
<clipPath id="clip0_2_66">
<rect width="17.28" height="18" fill="white" transform="translate(0.719971)"/>
</clipPath>
</defs>
</svg>
