<svg width="55" height="56" viewBox="0 0 55 56" fill="none" xmlns="http://www.w3.org/2000/svg">
<path d="M54.32 28C54.32 12.536 42.2854 0 27.44 0C12.5946 0 0.559998 12.536 0.559998 28C0.559998 43.464 12.5946 56 27.44 56C42.2854 56 54.32 43.464 54.32 28Z" fill="#E8EAEE"/>
<path d="M33.92 26.3125H29.06V21.25C29.06 20.6288 28.5764 20.125 27.98 20.125H26.9C26.3036 20.125 25.82 20.6288 25.82 21.25V26.3125H20.96C20.3636 26.3125 19.88 26.8163 19.88 27.4375V28.5625C19.88 29.1837 20.3636 29.6875 20.96 29.6875H25.82V34.75C25.82 35.3712 26.3036 35.875 26.9 35.875H27.98C28.5764 35.875 29.06 35.3712 29.06 34.75V29.6875H33.92C34.5163 29.6875 35 29.1837 35 28.5625V27.4375C35 26.8163 34.5163 26.3125 33.92 26.3125Z" fill="#030303"/>
</svg>
