<svg width="18" height="18" viewBox="0 0 18 18" fill="none" xmlns="http://www.w3.org/2000/svg">
<g clip-path="url(#clip0_2_70)">
<path d="M17.4438 15.5637L14.0789 12.0586C13.927 11.9004 13.7212 11.8125 13.5052 11.8125H12.955C13.8865 10.5715 14.44 9.01055 14.44 7.3125C14.44 3.27305 11.2979 0 7.42003 0C3.54215 0 0.400024 3.27305 0.400024 7.3125C0.400024 11.352 3.54215 14.625 7.42003 14.625C9.05015 14.625 10.5487 14.0484 11.74 13.0781V13.6512C11.74 13.8762 11.8244 14.0906 11.9763 14.2488L15.3412 17.7539C15.6584 18.0844 16.1714 18.0844 16.4853 17.7539L17.4404 16.759C17.7577 16.4285 17.7577 15.8941 17.4438 15.5637ZM7.42003 11.8125C5.0339 11.8125 3.10002 9.80156 3.10002 7.3125C3.10002 4.82695 5.03053 2.8125 7.42003 2.8125C9.80615 2.8125 11.74 4.82344 11.74 7.3125C11.74 9.79805 9.80953 11.8125 7.42003 11.8125Z" fill="#030303"/>
</g>
<defs>
<clipPath id="clip0_2_70">
<rect width="17.28" height="18" fill="white" transform="translate(0.400024)"/>
</clipPath>
</defs>
</svg>
